{"title":"Casino.Royale.2006.1080p.BluRay.x264-FraMeSToR","uid":6604084,"size":25236888569,"categoryP":"video","categoryS":"hd___movies","magnet":"?xt=urn:btih:335014c562abcb72b88b3fe9967adf863def3ece&amp;dn=Casino.Royale.2006.1080p.BluRay.x264-FraMeSToR&amp;tr=udp%3A%2F%2Ftracker.openbittorrent.com%3A80&amp;tr=udp%3A%2F%2Fopen.demonii.com%3A1337&amp;tr=udp%3A%2F%2Ftracker.coppersurfer.tk%3A6969&amp;tr=udp%3A%2F%2Fexodus.desync.com%3A6969","seeders":1,"leechers":2,"uploader":"insinuendo","files":14,"time":1313330875,"description":"James Bond goes on his first ever mission as a 00. Le Chiffre is a banker to the world's terrorists. He is participating in a poker game at Montenegro, where he must win back his money, in order to stay safe among the terrorist market. The boss of MI6, known simply as M sends Bond, along with Vesper Lynd to attend this game and prevent Le Chiffre from winning. Bond, using help from Felix Leiter, Mathis and having Vesper pose as his wife, enters the most important poker game in his already dangerous career.\n\nDirector: Martin Campbell\nWriters: Neal Purvis (screenplay), Robert Wade (screenplay)\nStars: Daniel Craig, Eva Green and Judi Dench\n &lt;a href=&quot;\nhttp://www.imdb.com/title/tt0381061/&quot; rel=&quot;nofollow&quot; target=&quot;_NEW&quot;&gt;\nhttp://www.imdb.com/title/tt0381061/&lt;/a&gt;\n\nGENERAL\nFormat : Matroska\nFile size : 23.4 GiB\nDuration : 2h 24mn\nOverall bit rate : 23.2 Mbps\n\nVIDEO\nFormat : AVC\nFormat/Info : Advanced Video Codec\nFormat profile : &lt;a class=&quot;__cf_email__&quot; href=&quot;/cdn-cgi/l/email-protection&quot; data-cfemail=&quot;7c34151b143c3048524d&quot;&gt;[email&amp;#160;protected]&lt;/a&gt;&lt;script cf-hash='f9e31' type=&quot;text/javascript&quot;&gt;\n/* &lt;![CDATA[ */!function(){try{var t=&quot;currentScript&quot;in document?document.currentScript:function(){for(var t=document.getElementsByTagName(&quot;script&quot;),e=t.length;e--;)if(t[e].getAttribute(&quot;cf-hash&quot;))return t[e]}();if(t&amp;&amp;t.previousSibling){var e,r,n,i,c=t.previousSibling,a=c.getAttribute(&quot;data-cfemail&quot;);if(a){for(e=&quot;&quot;,r=parseInt(a.substr(0,2),16),n=2;a.length-n;n+=2)i=parseInt(a.substr(n,2),16)^r,e+=String.fromCharCode(i);e=document.createTextNode(e),c.parentNode.replaceChild(e,c)}}}catch(u){}}();/* ]]&gt; */&lt;/script&gt;\nDuration : 2h 24mn\nNominal bit rate : 20.5 Mbps\nWidth : 1 920 pixels\nHeight : 798 pixels\nDisplay aspect ratio : 2.40:1\nFrame rate : 23.976 fps\nScan type : Progressive\n\nAUDIO\nAudio #1\nID : 2\nFormat : DTS\nFormat/Info : Digital Theater Systems\nFormat profile : MA\nCodec ID : A_DTS\nDuration : 2h 24mn\nBit rate mode : Variable\nChannel(s) : 6 channels\nChannel positions : Front: L C R, Surround: L R, LFE\nSampling rate : 48.0 KHz\nResolution : 16 bits\nLanguage : English\n\nAudio #2\nID : 3\nFormat : AC-3\nFormat/Info : Audio Coding 3\nFormat profile : Dolby Digital\nCodec ID : A_AC3\nDuration : 2h 24mn\nBit rate mode : Constant\nBit rate : 192 Kbps\nChannel(s) : 2 channels\nChannel positions : L R\nSampling rate : 48.0 KHz\nStream size : 199 MiB (1%)\nLanguage : English\n\nAudio #3\nID : 4\nFormat : AC-3\nFormat/Info : Audio Coding 3\nFormat profile : Dolby Digital\nCodec ID : A_AC3\nDuration : 2h 24mn\nBit rate mode : Constant\nBit rate : 192 Kbps\nChannel(s) : 2 channels\nChannel positions : L R\nSampling rate : 48.0 KHz\nStream size : 199 MiB (1%)\nLanguage : English\n\n\nSubtitles : English, Dutch\n\nNotes:\n******\nSo This is the second version of this movie, Because this one has a DTS TRUEHD and 2 commentary tracks on it..\nSo this is the best of the best...\n(Casino Royale UnCut 2006 HK Blu-ray 1080p AVC TrueHD 5.1) http://www.blu-ray.com/movies/Casino-Royale-Blu-ray/1150/","torrent":{"xt":"urn:btih:335014c562abcb72b88b3fe9967adf863def3ece","amp;dn":"Casino.Royale.2006.1080p.BluRay.x264-FraMeSToR","amp;tr":["udp%3A%2F%2Ftracker.openbittorrent.com%3A80","udp%3A%2F%2Fopen.demonii.com%3A1337","udp%3A%2F%2Ftracker.coppersurfer.tk%3A6969","udp%3A%2F%2Fexodus.desync.com%3A6969"],"infoHash":"335014c562abcb72b88b3fe9967adf863def3ece","infoHashBuffer":{"type":"Buffer","data":[51,80,20,197,98,171,203,114,184,139,63,233,150,122,223,134,61,239,62,206]},"announce":[],"urlList":[]}}